<svg width="1083" height="535" viewBox="0 0 1083 535" fill="none" xmlns="http://www.w3.org/2000/svg">
<path opacity="0.4" d="M2.61792 266.902C17.5808 362.542 77.926 437.138 171.625 483.003C265.337 528.874 392.411 546.003 540.762 526.648C689.159 507.288 833.277 474.279 935.535 430.117C986.669 408.034 1027.29 383.18 1052.76 355.884C1078.21 328.603 1088.48 298.929 1079.05 267.122C1060.11 203.239 994.512 127.364 899.131 72.9109C803.769 18.4694 678.703 -14.517 540.905 7.30869C515.955 11.2605 490.87 15.0575 465.9 18.8371C352.796 35.9573 242.052 52.7201 156.951 81.8864C105.01 99.6877 62.6884 122.089 35.224 151.96C7.78235 181.805 -4.85498 219.137 2.61792 266.902Z" stroke="url(#paint0_linear)"/>
<path opacity="0.5" d="M1080.38 266.902C1065.42 362.542 1005.07 437.138 911.375 483.003C817.663 528.874 690.589 546.003 542.238 526.648C393.841 507.288 249.723 474.279 147.465 430.117C96.3311 408.034 55.7078 383.18 30.2437 355.884C4.79391 328.603 -5.48019 298.929 3.95022 267.122C22.8905 203.239 88.4882 127.364 183.869 72.9109C279.231 18.4694 404.297 -14.517 542.095 7.30869C567.045 11.2605 592.13 15.0575 617.1 18.8371C730.204 35.9573 840.948 52.7201 926.049 81.8864C977.99 99.6877 1020.31 122.089 1047.78 151.96C1075.22 181.805 1087.85 219.137 1080.38 266.902Z" stroke="url(#paint1_linear)"/>
<path opacity="0.1" d="M930.519 266.423C903.289 388.362 750.565 404.935 542.198 452.29C333.83 499.644 183.474 363.501 153.877 266.423C124.279 169.346 327.911 47.4086 542.198 80.5569C756.484 113.705 957.748 144.485 930.519 266.423Z" fill="url(#paint2_linear)"/>
<circle cx="862.5" cy="7.5" r="7.5" fill="#687188"/>
<circle cx="381.5" cy="424.5" r="4.5" fill="#687188"/>
<circle cx="184.5" cy="112.5" r="4.5" fill="#687188"/>
<defs>
<linearGradient id="paint0_linear" x1="1083" y1="257.509" x2="0" y2="257.509" gradientUnits="userSpaceOnUse">
<stop stop-color="#2A314C"/>
<stop offset="1" stop-color="#1D2235"/>
</linearGradient>
<linearGradient id="paint1_linear" x1="0" y1="257.509" x2="1083" y2="257.509" gradientUnits="userSpaceOnUse">
<stop stop-color="#2A314C"/>
<stop offset="1" stop-color="#1D2235"/>
</linearGradient>
<linearGradient id="paint2_linear" x1="151" y1="261.273" x2="933" y2="261.273" gradientUnits="userSpaceOnUse">
<stop stop-color="#2A314C"/>
<stop offset="1" stop-color="#1D2235"/>
</linearGradient>
</defs>
</svg>
